<svg width="78" height="35" viewBox="0 0 78 35" version="1.1" xmlns="http://www.w3.org/2000/svg" xmlns:xlink="http://www.w3.org/1999/xlink">
<title>MGS</title>
<desc>Created using Figma</desc>
<g id="Canvas" transform="translate(1385 562)">
<g id="MGS">
<use xlink:href="#path0_fill" transform="translate(-1387 -569)" fill="#A31A1A"/>
</g>
</g>
<defs>
<path id="path0_fill" d="M 30.528 14L 30.528 41L 29.34 41L 29.34 15.728L 16.596 41.504L 3.924 15.404L 3.924 41L 2.736 41L 2.736 14L 4.428 14L 16.596 39.056L 28.872 14L 30.528 14ZM 52.1543 9.137C 49.3163 9.137 46.7219 9.868 44.3713 11.33C 42.0493 12.7633 40.2003 14.6983 38.8243 17.135C 37.4769 19.543 36.8033 22.1373 36.8033 24.918C 36.8033 27.7273 37.4913 30.336 38.8673 32.744C 40.2433 35.152 42.0636 37.0727 44.3283 38.506C 46.6216 39.9107 49.0869 40.613 51.7243 40.613C 53.2723 40.613 54.6483 40.4697 55.8523 40.183C 57.0849 39.8963 58.2603 39.4377 59.3783 38.807L 59.3783 28.702L 48.7143 28.702L 48.7143 27.455L 60.7973 27.455L 60.7973 37.904L 60.8833 37.861L 60.8833 39.452C 59.5073 40.2833 58.0883 40.8853 56.6263 41.258C 55.1929 41.6593 53.6163 41.86 51.8963 41.86C 48.8863 41.86 46.1199 41.129 43.5973 39.667C 41.0746 38.1763 39.0679 36.141 37.5773 33.561C 36.1153 30.9523 35.3843 28.0283 35.3843 24.789C 35.3843 21.6643 36.1439 18.812 37.6633 16.232C 39.2113 13.652 41.2609 11.6167 43.8123 10.126C 46.3923 8.63533 49.1299 7.89 52.0253 7.89C 54.0319 7.89 55.6229 8.07633 56.7983 8.449C 57.9736 8.793 59.3353 9.40933 60.8833 10.298L 60.8833 11.889C 59.4213 10.8857 58.0596 10.1833 56.7983 9.782C 55.5656 9.352 54.0176 9.137 52.1543 9.137ZM 71.7997 41.504C 68.7997 41.504 66.4717 40.268 64.8157 37.796L 64.8157 35.852C 65.4637 37.292 66.3997 38.42 67.6237 39.236C 68.8717 40.052 70.3597 40.46 72.0877 40.46C 73.2877 40.46 74.3917 40.196 75.3997 39.668C 76.4317 39.14 77.2477 38.396 77.8477 37.436C 78.4477 36.476 78.7477 35.372 78.7477 34.124C 78.7477 32.996 78.5557 32.024 78.1717 31.208C 77.7877 30.392 77.1517 29.612 76.2637 28.868C 75.3757 28.1 74.0917 27.2 72.4117 26.168L 71.2597 25.448C 70.2037 24.8 69.3517 24.224 68.7037 23.72C 68.0557 23.216 67.4917 22.628 67.0117 21.956C 66.3877 21.02 66.0757 19.94 66.0757 18.716C 66.0757 17.084 66.6037 15.812 67.6597 14.9C 68.7157 13.988 70.0597 13.532 71.6917 13.532C 73.8997 13.532 75.6517 14.348 76.9477 15.98L 76.9477 17.816C 76.3957 16.808 75.6397 16.016 74.6797 15.44C 73.7197 14.864 72.6637 14.576 71.5117 14.576C 70.3117 14.576 69.3037 14.948 68.4877 15.692C 67.6717 16.436 67.2637 17.432 67.2637 18.68C 67.2637 19.904 67.6357 20.96 68.3797 21.848C 69.1477 22.712 70.4317 23.66 72.2317 24.692C 74.4397 25.988 76.1557 27.164 77.3797 28.22C 78.2437 29.012 78.8677 29.888 79.2517 30.848C 79.6597 31.808 79.8637 32.876 79.8637 34.052C 79.8637 35.54 79.5157 36.848 78.8197 37.976C 78.1237 39.104 77.1637 39.98 75.9397 40.604C 74.7157 41.204 73.3357 41.504 71.7997 41.504Z"/>
</defs>
</svg>
