<svg width="165" height="153" viewBox="0 0 165 153" version="1.1" xmlns="http://www.w3.org/2000/svg" xmlns:xlink="http://www.w3.org/1999/xlink">
<title>codepen</title>
<desc>Created using Figma</desc>
<g id="Canvas" transform="translate(2782 -1440)">
<g id="codepen">
<g id="Canvas">
<g id="codepen">
<g id="Vector">
<g id="Vector">
<use xlink:href="#path0_fill" transform="translate(-2782 1440)" fill="#171DBD"/>
</g>
</g>
</g>
</g>
</g>
</g>
<defs>
<path id="path0_fill" d="M 161.869 47.7239L 86.4589 1.10661C 83.8849 -0.362138 81.1381 -0.375585 78.5406 1.10661L 3.13047 47.7239C 1.19689 48.919 0 51.0539 0 53.1881L 0 99.805C 0 101.94 1.19689 104.074 3.13081 105.27L 78.5408 151.893C 81.1148 153.362 83.8617 153.376 86.4592 151.893L 161.869 105.27C 163.803 104.074 165 101.94 165 99.805L 165 53.1881C 165 51.0539 163.803 48.919 161.869 47.7239ZM 89.5897 18.8651L 145.111 53.1881L 120.343 68.5566L 89.5897 49.5166L 89.5897 18.8651ZM 75.41 18.8651L 75.41 49.5166L 44.6566 68.5566L 19.8883 53.1881L 75.41 18.8651ZM 14.1797 65.4828L 31.9504 76.4966L 14.1797 87.5107L 14.1797 65.4828ZM 75.41 134.128L 19.8883 99.8053L 44.6566 84.4368L 75.41 103.477L 75.41 134.128ZM 82.4997 92.0358L 57.455 76.4966L 82.4997 60.9576L 107.545 76.4966L 82.4997 92.0358ZM 89.5897 134.128L 89.5897 103.477L 120.343 84.4368L 145.111 99.8053L 89.5897 134.128ZM 150.82 87.5107L 133.049 76.4966L 150.82 65.4828L 150.82 87.5107Z"/>
</defs>
</svg>
