<svg width="131" height="135" viewBox="0 0 131 135" version="1.1" xmlns="http://www.w3.org/2000/svg" xmlns:xlink="http://www.w3.org/1999/xlink">
<title>github</title>
<desc>Created using Figma</desc>
<g id="Canvas" transform="translate(2338 -1440)">
<g id="github">
<g id="Canvas">
<g id="github">
<g id="Vector">
<g id="Vector">
<use xlink:href="#path0_fill" transform="translate(-2338 1440)" fill="#171DBD"/>
</g>
</g>
</g>
</g>
</g>
</g>
<defs>
<path id="path0_fill" d="M 43.8164 108.702C 43.8164 109.26 43.2089 109.707 42.4429 109.707C 41.5714 109.79 40.9639 109.344 40.9639 108.702C 40.9639 108.143 41.5714 107.697 42.3372 107.697C 43.1296 107.613 43.8164 108.06 43.8164 108.702ZM 35.6025 107.446C 35.4175 108.004 35.9457 108.646 36.7382 108.813C 37.4247 109.093 38.2171 108.813 38.3757 108.255C 38.534 107.697 38.0322 107.055 37.24 106.804C 36.5532 106.608 35.7872 106.887 35.6025 107.446ZM 47.2761 106.971C 46.5103 107.166 45.9821 107.697 46.0614 108.339C 46.1404 108.897 46.8272 109.26 47.6196 109.065C 48.3854 108.869 48.9136 108.339 48.8346 107.781C 48.7553 107.25 48.0421 106.887 47.2761 106.971ZM 64.6549 0C 28.0225 0 0 29.3948 0 68.113C 0 99.071 18.4351 125.563 44.7671 134.886C 48.1478 135.528 49.3364 133.323 49.3364 131.509C 49.3364 129.778 49.2571 120.231 49.2571 114.369C 49.2571 114.369 30.7692 118.556 26.8867 106.05C 26.8867 106.05 23.8757 97.9265 19.5444 95.8328C 19.5444 95.8328 13.4962 91.4501 19.9669 91.5339C 19.9669 91.5339 26.5433 92.0922 30.1618 98.736C 35.9457 109.511 45.6386 106.413 49.4154 104.57C 50.0229 100.104 51.7397 97.0053 53.6414 95.1629C 38.8775 93.4321 23.9814 91.171 23.9814 64.3165C 23.9814 56.64 25.9886 52.7877 30.2146 47.8747C 29.5278 46.0602 27.2829 38.5789 30.9011 28.9202C 36.4211 27.1057 49.125 36.4573 49.125 36.4573C 54.4072 34.8941 60.0857 34.0845 65.7114 34.0845C 71.3368 34.0845 77.0153 34.8941 82.2975 36.4573C 82.2975 36.4573 95.0014 27.0778 100.521 28.9202C 104.14 38.6068 101.895 46.0602 101.208 47.8747C 105.434 52.8157 108.022 56.668 108.022 64.3165C 108.022 91.2547 92.466 93.4042 77.7021 95.1629C 80.1318 97.3682 82.1918 101.555 82.1918 108.116C 82.1918 117.523 82.1128 129.164 82.1128 131.453C 82.1128 133.267 83.3276 135.472 86.6818 134.83C 113.093 125.563 131 99.071 131 68.113C 131 29.3948 101.287 0 64.6549 0ZM 25.6718 96.2795C 25.3285 96.5586 25.4076 97.2007 25.8567 97.7311C 26.2793 98.1777 26.8868 98.3731 27.23 98.0102C 27.5733 97.7311 27.4942 97.089 27.0451 96.5586C 26.6225 96.112 26.015 95.9166 25.6718 96.2795ZM 22.8193 94.0183C 22.6346 94.3812 22.8986 94.8279 23.4268 95.107C 23.8493 95.3862 24.3775 95.3024 24.5625 94.9116C 24.7475 94.5487 24.4832 94.1021 23.955 93.8229C 23.4268 93.6554 23.0043 93.7392 22.8193 94.0183ZM 31.3767 103.956C 30.954 104.319 31.1125 105.157 31.72 105.687C 32.3275 106.329 33.0933 106.413 33.4368 105.966C 33.78 105.603 33.6215 104.766 33.0933 104.235C 32.5122 103.593 31.72 103.51 31.3767 103.956ZM 28.3657 99.8526C 27.9432 100.132 27.9432 100.858 28.3657 101.5C 28.7882 102.142 29.5014 102.421 29.8447 102.142C 30.2674 101.779 30.2674 101.053 29.8447 100.411C 29.475 99.7689 28.7882 99.4897 28.3657 99.8526Z"/>
</defs>
</svg>
