<svg width="155" height="153" viewBox="0 0 155 153" version="1.1" xmlns="http://www.w3.org/2000/svg" xmlns:xlink="http://www.w3.org/1999/xlink">
<title>linkedin</title>
<desc>Created using Figma</desc>
<g id="Canvas" transform="translate(2555 -1440)">
<g id="linkedin">
<g id="Canvas">
<g id="linkedin">
<g id="Vector">
<g id="Vector">
<use xlink:href="#path0_fill" transform="translate(-2555 1440)" fill="#171DBD"/>
</g>
</g>
</g>
</g>
</g>
</g>
<defs>
<path id="path0_fill" d="M 143.929 0L 11.0368 0C 4.94753 0 0 4.95201 0 11.031L 0 141.969C 0 148.048 4.94753 153 11.0368 153L 143.929 153C 150.018 153 155 148.048 155 141.969L 155 11.031C 155 4.95201 150.018 0 143.929 0ZM 46.8461 131.143L 23.8728 131.143L 23.8728 58.1262L 46.8805 58.1262L 46.8805 131.143L 46.8461 131.143ZM 35.3595 48.154C 27.99 48.154 22.0391 42.2456 22.0391 35.0056C 22.0391 27.7654 27.99 21.8571 35.3595 21.8571C 42.6942 21.8571 48.6796 27.7654 48.6796 35.0056C 48.6796 42.28 42.7287 48.154 35.3595 48.154ZM 132.961 131.143L 109.988 131.143L 109.988 95.625C 109.988 87.1555 109.815 76.261 98.0514 76.261C 86.0804 76.261 84.2467 85.482 84.2467 95.0104L 84.2467 131.143L 61.2734 131.143L 61.2734 58.1262L 83.3124 58.1262L 83.3124 68.0987L 83.6238 68.0987C 86.7032 62.3611 94.211 56.3163 105.386 56.3163C 128.636 56.3163 132.961 71.4457 132.961 91.1171L 132.961 131.143Z"/>
</defs>
</svg>
